<?xml version="1.0" encoding="utf-8"?>
<svg xmlns="http://www.w3.org/2000/svg"
	xmlns:xlink="http://www.w3.org/1999/xlink"
	width="40px" height="41px" viewBox="0 0 40 41">
<path fillRule="evenodd" d="M 40 20.68C 40 15.34 37.92 10.31 34.14 6.53 30.37 2.76 25.34 0.67 20 0.67 14.66 0.67 9.63 2.76 5.86 6.53 2.08 10.31-0 15.34-0 20.68-0 20.68-0 30.15-0 30.15-0 35.5 4.36 39.86 9.71 39.86 10.35 39.86 10.86 39.35 10.86 38.71 10.86 38.71 10.86 21.6 10.86 21.6 10.86 20.96 10.35 20.45 9.71 20.45 6.75 20.45 4.09 21.78 2.31 23.87 2.31 23.87 2.31 20.68 2.31 20.68 2.31 10.92 10.25 2.99 20 2.99 29.75 2.99 37.69 10.92 37.69 20.68 37.69 20.76 37.7 20.83 37.71 20.91 37.7 20.99 37.69 21.06 37.69 21.14 37.69 21.14 37.69 24.34 37.69 24.34 35.91 22.24 33.25 20.91 30.29 20.91 29.65 20.91 29.14 21.42 29.14 22.07 29.14 22.07 29.14 39.17 29.14 39.17 29.14 39.81 29.65 40.32 30.29 40.32 35.64 40.32 40 35.97 40 30.61 40 30.61 40 21.14 40 21.14 40 21.06 39.99 20.99 39.97 20.91 39.99 20.83 40 20.76 40 20.68ZM 8.54 22.85C 8.54 22.85 8.54 37.46 8.54 37.46 5.02 36.9 2.3 33.83 2.3 30.15 2.31 26.47 5.02 23.4 8.54 22.85ZM 31.46 37.92C 31.46 37.92 31.46 23.31 31.46 23.31 34.98 23.87 37.7 26.93 37.7 30.61 37.69 34.3 34.98 37.36 31.46 37.92Z" fill="rgb(255,89,0)"/></svg>