<?xml version="1.0" encoding="utf-8"?>
<svg xmlns="http://www.w3.org/2000/svg"
	xmlns:xlink="http://www.w3.org/1999/xlink"
	width="47px" height="48px" viewBox="0 0 47 48">
<path fillRule="evenodd" d="M 44.16 44.8C 44.16 44.8 43.1 44.8 43.1 44.8 43.1 44.8 43.1 48 43.1 48 43.1 48 41.5 48 41.5 48 41.5 48 41.5 44.8 41.5 44.8 41.5 44.8 40.44 44.8 40.44 44.8 39.26 44.8 38.3 43.84 38.3 42.66 38.3 42.66 38.3 34.14 38.3 34.14 38.3 33.84 38.06 33.6 37.76 33.6 37.76 33.6 34.3 33.6 34.3 33.6 34.3 33.6 34.3 34.4 34.3 34.4 34.3 36.6 32.51 38.4 30.3 38.4 26.14 38.4 22.39 35.93 20.75 32.1 20.44 31.38 20.35 30.56 20.51 29.8 20.64 29.21 20.7 28.6 20.7 28 20.7 27.4 20.64 26.79 20.51 26.2 20.35 25.44 20.44 24.62 20.75 23.9 22.39 20.07 26.14 17.6 30.3 17.6 32.51 17.6 34.3 19.39 34.3 21.6 34.3 21.6 34.3 22.4 34.3 22.4 34.3 22.4 39.1 22.4 39.1 22.4 43.07 22.4 46.3 25.63 46.3 29.6 46.3 29.6 46.3 42.66 46.3 42.66 46.3 43.84 45.34 44.8 44.16 44.8ZM 32.7 33.6C 32.7 33.6 32.7 22.4 32.7 22.4 32.7 22.4 32.7 21.6 32.7 21.6 32.7 20.28 31.62 19.2 30.3 19.2 26.78 19.2 23.61 21.29 22.22 24.53 22.03 24.95 21.98 25.43 22.08 25.87 22.22 26.57 22.3 27.29 22.3 28 22.3 28.71 22.22 29.43 22.08 30.13 21.98 30.57 22.03 31.04 22.22 31.47 23.61 34.71 26.78 36.8 30.3 36.8 31.62 36.8 32.7 35.72 32.7 34.4 32.7 34.4 32.7 33.6 32.7 33.6ZM 35.9 24C 35.9 24 34.3 24 34.3 24 34.3 24 34.3 32 34.3 32 34.3 32 35.9 32 35.9 32 35.9 32 35.9 24 35.9 24ZM 44.7 29.6C 44.7 26.51 42.19 24 39.1 24 39.1 24 37.5 24 37.5 24 37.5 24 37.5 32 37.5 32 37.5 32 37.76 32 37.76 32 38.94 32 39.9 32.96 39.9 34.14 39.9 34.14 39.9 42.66 39.9 42.66 39.9 42.96 40.14 43.2 40.44 43.2 40.44 43.2 44.16 43.2 44.16 43.2 44.46 43.2 44.7 42.96 44.7 42.66 44.7 42.66 44.7 29.6 44.7 29.6ZM 26.25 14.5C 24.61 18.33 20.86 20.8 16.7 20.8 14.49 20.8 12.7 19 12.7 16.8 12.7 16.8 12.7 16 12.7 16 12.7 16 9.24 16 9.24 16 8.94 16 8.7 16.24 8.7 16.54 8.7 16.54 8.7 25.06 8.7 25.06 8.7 26.24 7.74 27.2 6.56 27.2 6.56 27.2 5.5 27.2 5.5 27.2 5.5 27.2 5.5 48 5.5 48 5.5 48 3.9 48 3.9 48 3.9 48 3.9 27.2 3.9 27.2 3.9 27.2 2.84 27.2 2.84 27.2 1.66 27.2 0.7 26.24 0.7 25.06 0.7 25.06 0.7 12 0.7 12 0.7 8.03 3.93 4.8 7.9 4.8 7.9 4.8 12.7 4.8 12.7 4.8 12.7 4.8 12.7 4 12.7 4 12.7 1.79 14.49-0 16.7-0 20.86-0 24.61 2.47 26.25 6.3 26.56 7.02 26.65 7.84 26.49 8.6 26.36 9.19 26.3 9.8 26.3 10.4 26.3 11 26.36 11.61 26.49 12.2 26.65 12.96 26.56 13.78 26.25 14.5ZM 9.5 6.4C 9.5 6.4 7.9 6.4 7.9 6.4 4.81 6.4 2.3 8.91 2.3 12 2.3 12 2.3 25.06 2.3 25.06 2.3 25.36 2.54 25.6 2.84 25.6 2.84 25.6 6.56 25.6 6.56 25.6 6.86 25.6 7.1 25.36 7.1 25.06 7.1 25.06 7.1 16.54 7.1 16.54 7.1 15.36 8.06 14.4 9.24 14.4 9.24 14.4 9.5 14.4 9.5 14.4 9.5 14.4 9.5 6.4 9.5 6.4ZM 12.7 6.4C 12.7 6.4 11.1 6.4 11.1 6.4 11.1 6.4 11.1 14.4 11.1 14.4 11.1 14.4 12.7 14.4 12.7 14.4 12.7 14.4 12.7 6.4 12.7 6.4ZM 24.92 8.27C 25.02 7.83 24.97 7.35 24.78 6.93 23.39 3.69 20.22 1.6 16.7 1.6 15.38 1.6 14.3 2.68 14.3 4 14.3 4 14.3 4.8 14.3 4.8 14.3 4.8 14.3 16 14.3 16 14.3 16 14.3 16.8 14.3 16.8 14.3 18.12 15.38 19.2 16.7 19.2 20.22 19.2 23.39 17.11 24.78 13.87 24.97 13.44 25.02 12.97 24.92 12.53 24.78 11.83 24.7 11.11 24.7 10.4 24.7 9.69 24.78 8.97 24.92 8.27Z" fill="rgb(255,89,0)"/></svg>