<?xml version="1.0" encoding="utf-8"?>
<svg xmlns="http://www.w3.org/2000/svg"
	xmlns:xlink="http://www.w3.org/1999/xlink"
	width="50px" height="45px" viewBox="0 0 50 45">
<path fillRule="evenodd" d="M 49.42 17.91C 48.78 21.6 47.19 24.91 44.83 27.76 41.97 31.24 38.35 33.8 34.21 35.59 32.81 36.19 31.42 36.82 30.05 37.47 29.3 37.83 28.66 38.33 28.23 39.14 29.07 39.37 29.31 40.01 29.32 40.72 29.32 41.54 29.27 42.37 29.13 43.17 28.96 44.13 28.47 44.51 27.5 44.54 26.06 44.57 24.63 44.57 23.19 44.54 22.18 44.52 21.78 44.17 21.61 43.17 21.38 41.86 21.72 40.65 22.44 39.52 21.95 38.56 21.2 37.87 20.25 37.42 18.87 36.78 17.43 36.25 16.09 35.54 13.96 34.4 11.69 33.38 9.81 31.89 5.09 28.16 1.65 23.46 0.91 17.32 0.29 12.19 1.11 7.27 4.64 3.19 7.26 0.17 10.61-0.44 14.29 0.68 15.05 0.91 15.71 1.48 16.56 1.98 17.6 1.6 17.86 1.65 18.46 2.53 19.77 4.47 21.08 6.41 22.36 8.38 23.66 10.39 24.85 12.45 25.22 14.94 25.29 14.74 25.39 14.55 25.42 14.35 25.66 12.78 26.19 11.32 27.05 9.99 28.65 7.5 30.27 5.02 31.91 2.55 32.51 1.65 32.76 1.61 33.99 1.98 36.75-0.71 42.62-0.49 45.66 3.06 47.7 5.44 48.93 8.19 49.35 11.27 49.66 13.47 49.81 15.69 49.42 17.91ZM 22.96 43.43C 23.85 43.54 24 42.61 24.73 42.45 24.53 42.82 24.36 43.11 24.11 43.58 24.56 43.5 24.84 43.51 25.07 43.4 25.29 43.3 25.45 43.07 25.74 42.8 25.74 43.14 25.74 43.32 25.74 43.48 26.24 43.48 26.69 43.45 27.14 43.49 27.77 43.54 28.08 43.2 28.11 42.65 28.16 41.85 28.12 41.04 28.12 40.24 26.7 40.24 25.37 40.24 24 40.24 23.72 41.13 22.86 41.6 22.76 42.57 23.02 42.49 23.2 42.44 23.43 42.38 23.27 42.73 23.13 43.04 22.96 43.43ZM 17.32 2.88C 15.46 3.26 15.27 4.21 16.58 5.81 17.14 5.36 17.69 4.92 18.31 4.43 17.99 3.93 17.66 3.43 17.32 2.88ZM 22.83 11.46C 21.94 9.8 20.91 8.22 19.92 6.62 19.6 6.1 19.2 5.63 18.84 5.14 17.95 5.32 17.37 5.8 17.05 6.55 16.98 6.7 17.24 6.99 17.4 7.32 17.71 6.89 17.92 6.6 18.18 6.23 18.3 6.95 17.47 7.45 18.19 8.46 18.45 8 18.63 7.67 18.81 7.34 18.86 7.39 18.91 7.43 18.95 7.48 18.75 7.87 18.54 8.26 18.34 8.63 18.62 9.07 18.85 9.37 19.02 9.69 19.36 10.38 20.1 10.68 20.54 11.19 21.73 12.57 23.04 13.93 23.49 15.81 23.57 16.16 23.69 16.51 23.8 16.86 24 14.94 23.71 13.12 22.83 11.46ZM 15.54 13.04C 15.32 13.65 15.26 14.31 15.19 14.65 15.18 16.6 15.73 18.01 16.82 19.23 18.14 20.71 19.97 21.09 21.72 20.2 22.84 19.63 23.2 18.86 23.12 17.61 22.96 15.28 21.71 13.52 20.15 11.96 18.67 10.5 16.23 11.09 15.54 13.04ZM 31.36 5.29C 30.76 6.2 30.13 7.11 29.54 8.05 28.95 8.99 28.38 9.95 27.83 10.91 26.77 12.76 26.3 15.04 26.59 16.84 27.44 13.9 28.28 12.63 30.69 10.67 30.79 10.6 30.86 10.5 30.93 10.4 31.76 9.17 32.58 7.95 33.44 6.68 32.61 5.42 32.36 5.26 31.36 5.29ZM 27.65 19.27C 28.01 18.71 28.31 18.19 28.68 17.71 28.8 17.55 29.08 17.47 29.3 17.44 29.38 17.43 29.61 17.7 29.59 17.75 29.48 17.94 29.32 18.24 29.15 18.26 28.39 18.34 28.31 18.97 28.12 19.48 28 19.81 28.16 20.05 28.57 19.97 28.57 19.97 28.54 19.94 28.54 19.94 28.54 19.94 28.54 19.94 28.54 19.94 28.56 19.95 28.57 19.94 28.59 19.94 28.59 19.95 28.58 19.95 28.58 19.96 29.68 20.77 30.84 20.93 32.1 20.32 34.58 19.12 35.87 15.72 34.85 13.02 34.12 11.08 31.67 10.48 30.23 11.99 29.31 12.96 28.6 14.14 27.86 15.27 27.6 15.66 27.53 16.19 27.43 16.67 27.41 16.75 27.66 16.89 27.82 17.04 27.36 18.73 27.36 18.73 27.65 19.27ZM 34.54 3.52C 34.33 2.95 33.66 2.94 33.05 2.91 32.71 3.43 32.39 3.94 32.04 4.47 32.4 4.72 32.72 4.9 33 5.12 33.27 5.34 33.52 5.6 33.84 5.89 34.39 5.15 34.87 4.4 34.54 3.52ZM 48.12 12.28C 47.82 9.18 46.78 6.32 44.7 3.97 42.42 1.39 39.62 0.73 36.43 1.8 35.95 1.96 35.52 2.29 35.02 2.57 35.75 3.57 35.55 4.47 35.08 5.36 34.64 6.19 34.17 7.02 33.69 7.83 33.21 8.63 32.7 9.41 32.16 10.27 32.67 10.35 33.07 10.4 33.45 10.49 34.48 10.73 35.25 11.3 35.64 12.3 36.82 15.27 36.4 18.11 34.05 20.34 33.01 21.32 31.74 21.87 30.23 21.78 27.97 21.64 25.58 19.81 25.36 17.21 25.36 17.16 25.25 17.12 24.98 16.91 25.15 18.2 24.39 18.95 23.87 19.85 22.94 21.45 19.6 22.25 17.87 21.37 15.33 20.06 13.74 17.26 14.17 14.44 14.62 11.5 15.27 10.81 18.19 10.23 18.06 10 17.95 9.8 17.83 9.59 17.04 8.29 16.24 7 15.47 5.69 14.88 4.69 14.57 3.66 15.32 2.56 13.79 1.46 12.14 1.18 10.44 1.38 7.54 1.73 5.65 3.53 4.25 5.97 2.21 9.53 1.77 13.41 2.29 17.33 2.87 21.69 4.9 25.45 8.13 28.49 9.2 29.5 10.27 30.56 11.5 31.36 13.63 32.75 15.84 34.03 18.26 34.92 19.22 35.27 20.13 35.76 21.05 36.21 22.04 36.69 22.9 37.35 23.45 38.29 23.91 39.06 24.47 39.4 25.35 39.29 25.63 39.25 25.92 39.28 26.26 39.28 26.97 38.03 27.88 36.93 29.22 36.27 30.32 35.73 31.44 35.19 32.58 34.72 36.29 33.17 39.68 31.16 42.54 28.26 44.64 26.13 46.08 23.63 47.2 20.91 48.34 18.13 48.4 15.22 48.12 12.28ZM 30.77 18.36C 30.66 18.54 30.49 18.67 30.33 18.82 30.23 18.72 30.02 18.56 30.04 18.51 30.13 18.32 30.28 18.17 30.47 17.92 30.62 18.13 30.8 18.31 30.77 18.36ZM 31.11 16.14C 31.14 16.13 31.25 16.29 31.38 16.44 31.16 16.55 30.99 16.65 30.81 16.7 30.79 16.71 30.64 16.45 30.65 16.44 30.79 16.32 30.94 16.21 31.11 16.14ZM 32.09 19.07C 31.95 19.31 31.67 19.48 31.45 19.68 31.33 19.5 31.06 19.28 31.1 19.16 31.19 18.9 31.44 18.7 31.73 18.33 31.92 18.71 32.15 18.97 32.09 19.07ZM 31.75 17.36C 31.67 17.22 31.78 16.86 31.92 16.75 32.23 16.52 32.44 16.74 32.54 17.06 32.56 17.13 32.59 17.2 32.61 17.27 32.55 17.3 32.49 17.33 32.45 17.37 32.2 17.6 31.92 17.69 31.75 17.36ZM 32.61 17.29C 32.61 17.28 32.61 17.28 32.61 17.27 32.62 17.26 32.64 17.25 32.65 17.24 32.65 17.24 32.61 17.29 32.61 17.29ZM 32.65 17.29C 32.64 17.29 32.62 17.29 32.61 17.29 32.61 17.29 32.65 17.24 32.65 17.24 32.65 17.26 32.65 17.27 32.65 17.29ZM 33.32 17.66C 33.22 17.81 33.06 17.94 32.9 18.01 32.85 18.03 32.66 17.84 32.62 17.72 32.58 17.59 32.63 17.44 32.65 17.29 32.79 17.3 32.96 17.28 33.08 17.34 33.19 17.4 33.35 17.63 33.32 17.66ZM 33.73 15.38C 33.84 15.37 33.97 15.51 34.18 15.64 33.96 15.78 33.83 15.92 33.72 15.91 33.6 15.9 33.5 15.74 33.4 15.64 33.51 15.55 33.61 15.39 33.73 15.38ZM 32.74 15.51C 32.27 15 32.55 14.74 33.09 14.41 33.41 15.02 33.19 15.28 32.74 15.51ZM 31.71 14.77C 31.61 14.8 31.47 14.65 31.24 14.5 31.5 14.33 31.65 14.2 31.81 14.16 31.87 14.15 32.07 14.4 32.05 14.47 32 14.6 31.85 14.75 31.71 14.77ZM 28.59 19.94C 28.79 19.63 28.99 19.33 29.19 19.02 29.27 19.56 29.24 20.02 28.59 19.94ZM 20.09 18.8C 19.9 18.71 19.74 18.56 19.6 18.39 19.58 18.37 19.81 18.07 19.85 18.08 20.05 18.14 20.23 18.28 20.49 18.44 20.3 18.62 20.14 18.82 20.09 18.8ZM 18.94 16.34C 19.43 16.01 19.64 16.1 19.72 16.47 19.74 16.53 19.66 16.61 19.63 16.69 19.43 16.59 19.23 16.48 18.94 16.34ZM 18.34 14.48C 18.31 14.4 18.51 14.15 18.56 14.16 18.73 14.2 18.87 14.33 19.14 14.49 18.91 14.64 18.78 14.79 18.68 14.77 18.54 14.75 18.38 14.61 18.34 14.48ZM 18.63 17.36C 18.57 17.47 18.3 17.52 18.13 17.5 18 17.49 17.89 17.37 17.77 17.28 17.85 17.1 17.9 16.87 18.04 16.77 18.15 16.7 18.46 16.73 18.55 16.83 18.66 16.95 18.7 17.23 18.63 17.36ZM 17.73 17.24C 17.74 17.25 17.75 17.27 17.77 17.28 17.77 17.28 17.77 17.28 17.76 17.28 17.76 17.28 17.73 17.24 17.73 17.24ZM 17.73 17.29C 17.73 17.27 17.73 17.26 17.73 17.24 17.73 17.24 17.76 17.28 17.77 17.29 17.75 17.29 17.74 17.29 17.73 17.29ZM 17.76 17.72C 17.72 17.84 17.53 18.03 17.48 18.01 17.32 17.94 17.16 17.81 17.06 17.66 17.03 17.63 17.19 17.4 17.3 17.34 17.42 17.28 17.58 17.3 17.73 17.29 17.75 17.43 17.79 17.59 17.76 17.72ZM 17.25 14.47C 17.82 14.63 18 14.9 17.72 15.55 17.19 15.28 16.97 15.02 17.25 14.47ZM 16.34 15.6C 16.46 15.52 16.58 15.38 16.69 15.39 16.8 15.39 16.91 15.54 17.13 15.71 16.88 15.81 16.74 15.93 16.63 15.9 16.51 15.87 16.44 15.71 16.34 15.6ZM 19.3 19.28C 19.13 19.41 18.89 19.67 18.81 19.63 18.56 19.5 18.37 19.26 18.04 18.95 18.4 18.77 18.69 18.55 18.76 18.6 18.98 18.77 19.12 19.05 19.3 19.28ZM 21.15 17.42C 21.37 17.54 21.58 17.71 21.72 17.91 21.76 17.97 21.56 18.2 21.39 18.48 21.13 18.19 20.93 18.01 20.8 17.79 20.78 17.74 21.1 17.4 21.15 17.42Z" fill="rgb(255,89,0)"/></svg>