<?xml version="1.0" encoding="utf-8"?>
<svg xmlns="http://www.w3.org/2000/svg"
	xmlns:xlink="http://www.w3.org/1999/xlink"
	width="48px" height="44px" viewBox="0 0 48 44">
<path fillRule="evenodd" d="M 43.2 26C 43.2 26 43.2 22 43.2 22 43.2 22 44 22 44 22 44 22 44 19.91 44 19.91 44 15.4 42.32 11.05 39.28 7.58 39.33 7.39 39.37 7.18 39.36 6.97 39.36 6.33 39.09 5.71 38.61 5.28 35.08 2.08 28.58 0.4 24 0.4 19.42 0.4 12.92 2.08 9.39 5.28 8.91 5.71 8.64 6.33 8.64 6.97 8.64 7.06 8.65 7.14 8.66 7.22 5.66 10.69 4 15.17 4 19.91 4 19.91 4 22 4 22 4 22 4.8 22 4.8 22 4.8 22 4.8 26 4.8 26 2.15 26-0 28.15-0 30.8-0 30.8-0 38.8-0 38.8-0 41.45 2.15 43.6 4.8 43.6 4.8 43.6 5.03 43.6 5.03 43.6 5.03 43.6 5.6 43.6 5.6 43.6 5.6 43.6 9.21 43.6 9.21 43.6 11.19 43.6 12.8 41.99 12.8 40.01 12.8 40.01 12.8 29.83 12.8 29.83 12.8 27.93 11.41 26.37 9.6 26.06 9.6 26.06 9.6 22 9.6 22 9.6 22 10.4 22 10.4 22 10.4 22 10.4 19.91 10.4 19.91 10.4 16.87 11.49 13.86 13.38 11.59 13.95 11.6 14.52 11.41 14.98 11.01 16.78 9.45 21.1 8.4 24 8.4 26.9 8.4 31.22 9.45 33.02 11.01 33.37 11.31 33.78 11.49 34.21 11.56 36.36 13.88 37.6 16.91 37.6 19.91 37.6 19.91 37.6 22 37.6 22 37.6 22 38.4 22 38.4 22 38.4 22 38.4 26.06 38.4 26.06 36.59 26.37 35.2 27.93 35.2 29.83 35.2 29.83 35.2 40.01 35.2 40.01 35.2 41.99 36.81 43.6 38.79 43.6 38.79 43.6 42.4 43.6 42.4 43.6 42.4 43.6 42.97 43.6 42.97 43.6 42.97 43.6 43.2 43.6 43.2 43.6 45.85 43.6 48 41.45 48 38.8 48 38.8 48 30.8 48 30.8 48 28.15 45.85 26 43.2 26ZM 4 41.9C 2.62 41.54 1.6 40.29 1.6 38.8 1.6 38.8 1.6 30.8 1.6 30.8 1.6 29.31 2.62 28.06 4 27.7 4 27.7 4 41.9 4 41.9ZM 11.1 29.2C 11.1 29.2 9.6 29.2 9.6 29.2 9.16 29.2 8.8 29.56 8.8 30 8.8 30.44 9.16 30.8 9.6 30.8 9.6 30.8 11.2 30.8 11.2 30.8 11.2 30.8 11.2 32.4 11.2 32.4 11.2 32.4 9.6 32.4 9.6 32.4 9.16 32.4 8.8 32.76 8.8 33.2 8.8 33.64 9.16 34 9.6 34 9.6 34 11.2 34 11.2 34 11.2 34 11.2 35.6 11.2 35.6 11.2 35.6 9.6 35.6 9.6 35.6 9.16 35.6 8.8 35.96 8.8 36.4 8.8 36.84 9.16 37.2 9.6 37.2 9.6 37.2 11.2 37.2 11.2 37.2 11.2 37.2 11.2 38.8 11.2 38.8 11.2 38.8 9.6 38.8 9.6 38.8 9.16 38.8 8.8 39.16 8.8 39.6 8.8 40.04 9.16 40.4 9.6 40.4 9.6 40.4 11.16 40.4 11.16 40.4 10.98 41.31 10.17 42 9.21 42 9.21 42 5.6 42 5.6 42 5.6 42 5.6 27.6 5.6 27.6 5.6 27.6 8.97 27.6 8.97 27.6 9.98 27.6 10.82 28.28 11.1 29.2ZM 6.4 26C 6.4 26 6.4 22 6.4 22 6.4 22 8 22 8 22 8 22 8 26 8 26 8 26 6.4 26 6.4 26ZM 8.8 19.91C 8.8 19.91 8.8 20.4 8.8 20.4 8.8 20.4 5.6 20.4 5.6 20.4 5.6 20.4 5.6 19.91 5.6 19.91 5.6 15.78 6.96 11.86 9.45 8.76 9.45 8.76 11.83 10.95 11.83 10.95 9.87 13.47 8.8 16.61 8.8 19.91ZM 35.04 9.81C 35.04 9.81 35.04 9.81 35.04 9.81 34.96 9.88 34.88 9.92 34.8 9.95 34.75 9.97 34.7 9.97 34.65 9.98 34.62 9.98 34.6 9.99 34.58 9.99 34.58 9.99 34.55 9.99 34.55 9.99 34.38 9.99 34.21 9.93 34.07 9.8 31.68 7.73 26.74 6.8 24 6.8 21.26 6.8 16.32 7.73 13.93 9.8 13.73 9.98 13.47 10.02 13.24 9.96 13.13 9.93 13.03 9.88 12.95 9.81 12.95 9.81 10.47 7.53 10.47 7.53 10.47 7.53 10.47 7.53 10.47 7.53 10.39 7.45 10.33 7.34 10.28 7.21 10.26 7.14 10.23 7.06 10.23 6.98 10.24 6.78 10.32 6.6 10.46 6.47 13.66 3.56 19.83 2 24 2 28.17 2 34.34 3.56 37.54 6.47 37.68 6.6 37.76 6.78 37.76 6.98 37.76 7.08 37.74 7.18 37.71 7.27 37.71 7.27 37.68 7.31 37.68 7.31 37.64 7.38 37.6 7.45 37.54 7.51 37.54 7.51 37.53 7.52 37.53 7.53 37.53 7.53 35.04 9.81 35.04 9.81 35.04 9.81 35.04 9.81 35.04 9.81ZM 42.4 42C 42.4 42 38.79 42 38.79 42 37.82 42 37.02 41.31 36.84 40.4 36.84 40.4 38.4 40.4 38.4 40.4 38.84 40.4 39.2 40.04 39.2 39.6 39.2 39.16 38.84 38.8 38.4 38.8 38.4 38.8 36.8 38.8 36.8 38.8 36.8 38.8 36.8 37.2 36.8 37.2 36.8 37.2 38.4 37.2 38.4 37.2 38.84 37.2 39.2 36.84 39.2 36.4 39.2 35.96 38.84 35.6 38.4 35.6 38.4 35.6 36.8 35.6 36.8 35.6 36.8 35.6 36.8 34 36.8 34 36.8 34 38.4 34 38.4 34 38.84 34 39.2 33.64 39.2 33.2 39.2 32.76 38.84 32.4 38.4 32.4 38.4 32.4 36.8 32.4 36.8 32.4 36.8 32.4 36.8 30.8 36.8 30.8 36.8 30.8 38.4 30.8 38.4 30.8 38.84 30.8 39.2 30.44 39.2 30 39.2 29.56 38.84 29.2 38.4 29.2 38.4 29.2 36.9 29.2 36.9 29.2 37.18 28.28 38.02 27.6 39.03 27.6 39.03 27.6 42.4 27.6 42.4 27.6 42.4 27.6 42.4 42 42.4 42ZM 40 26C 40 26 40 22 40 22 40 22 41.6 22 41.6 22 41.6 22 41.6 26 41.6 26 41.6 26 40 26 40 26ZM 42.4 20.4C 42.4 20.4 39.2 20.4 39.2 20.4 39.2 20.4 39.2 19.91 39.2 19.91 39.2 16.78 38.03 13.64 35.96 11.12 36.02 11.08 36.08 11.03 36.13 10.98 36.13 10.98 38.35 8.94 38.35 8.94 40.97 12.06 42.4 15.92 42.4 19.91 42.4 19.91 42.4 20.4 42.4 20.4ZM 46.4 38.8C 46.4 40.29 45.38 41.54 44 41.9 44 41.9 44 27.7 44 27.7 45.38 28.06 46.4 29.31 46.4 30.8 46.4 30.8 46.4 38.8 46.4 38.8Z" fill="rgb(255,89,0)"/></svg>